<svg xmlns="http://www.w3.org/2000/svg" viewBox="0 0 1200 730"><rect width="1200" height="730" fill="#f3e9da"/>
<rect x="0" y="470" width="1200" height="260" fill="#e6d5bc"/>
<g stroke="#b48a55" stroke-width="10" stroke-linecap="round" fill="none"><path d="M60 470H1140"/></g>
<g fill="#c9a476"><rect x="120" y="410" width="90" height="60" rx="10"/><rect x="250" y="410" width="90" height="60" rx="10"/><rect x="380" y="410" width="90" height="60" rx="10"/></g>
<g fill="#7a4f24"><rect x="560" y="210" width="26" height="262" rx="6"/><rect x="760" y="210" width="26" height="262" rx="6"/><rect x="545" y="190" width="256" height="34" rx="10"/></g>
<rect x="586" y="300" width="174" height="18" rx="9" fill="#d94f3d"/>
<circle cx="673" cy="130" r="34" fill="#2b2b2b"/><path d="M620 190c8-30 30-42 53-42s45 12 53 42" fill="#2b2b2b"/>
<g fill="#b48a55" opacity=".6"><rect x="900" y="428" width="70" height="42" rx="8"/><rect x="1000" y="428" width="70" height="42" rx="8"/></g>
<g fill="#ffffff" opacity=".45"><circle cx="1040" cy="150" r="70"/></g></svg>
